<?xml version="1.0" encoding="utf-8"?>
<!-- Generator: Adobe Illustrator 24.3.0, SVG Export Plug-In . SVG Version: 6.00 Build 0)  -->
<svg version="1.1" id="Layer_1" xmlns="http://www.w3.org/2000/svg" xmlns:xlink="http://www.w3.org/1999/xlink" x="0px" y="0px"
	 viewBox="0 0 512 512" style="enable-background:new 0 0 512 512;" xml:space="preserve">
<style type="text/css">
	.st0{fill:url(#path9286_1_);}
	.st1{fill:url(#path9304_1_);}
	.st2{fill:url(#path9322_1_);}
	.st3{fill:url(#path9340_1_);}
	.st4{fill:url(#path9358_1_);}
	.st5{fill:url(#path9376_1_);}
	.st6{fill:url(#path9394_1_);}
	.st7{fill:url(#path9412_1_);}
	.st8{fill:url(#path9430_1_);}
	.st9{fill:url(#path9448_1_);}
</style>
<g id="g9582" transform="matrix(1.4261266,0,0,-1.4261266,-54.841698,1056.9735)">
	<g id="g9270">
		<g id="g9272">
			<g id="g9278">
				
					<linearGradient id="path9286_1_" gradientUnits="userSpaceOnUse" x1="73.9178" y1="656.7859" x2="76.612" y2="656.7859" gradientTransform="matrix(0 -39.1194 -36.2558 0 24046.957 3479.6052)">
					<stop  offset="0" style="stop-color:#00C0F3"/>
					<stop  offset="1" style="stop-color:#0066B3"/>
				</linearGradient>
				<path id="path9286" class="st0" d="M212.91,585.29h12.59v-19.23h0.14l14.11,19.23h15.08l-17.29-22l18.82-25.18H240.3
					l-14.66,21.44h-0.14v-21.44h-12.59L212.91,585.29"/>
			</g>
		</g>
	</g>
	<g id="g9288">
		<g id="g9290">
			<g id="g9296">
				
					<linearGradient id="path9304_1_" gradientUnits="userSpaceOnUse" x1="73.9178" y1="656.6008" x2="76.612" y2="656.6008" gradientTransform="matrix(0 -39.1194 -42.3775 0 28103.0254 3479.6052)">
					<stop  offset="0" style="stop-color:#00C0F3"/>
					<stop  offset="1" style="stop-color:#0066B3"/>
				</linearGradient>
				<path id="path9304" class="st1" d="M283.47,557.07h-11.76l6.09,18.4h0.14L283.47,557.07z M252.2,538.11h12.73l3.74,10.1h17.71
					l3.46-10.1h13.83l-18.12,47.18h-15.36L252.2,538.11"/>
			</g>
		</g>
	</g>
	<g id="g9306">
		<g id="g9308">
			<g id="g9314">
				
					<linearGradient id="path9322_1_" gradientUnits="userSpaceOnUse" x1="73.7899" y1="654.3282" x2="76.484" y2="654.3282" gradientTransform="matrix(0 -40.3364 -30.1433 0 20045.1367 3565.2102)">
					<stop  offset="0" style="stop-color:#00C0F3"/>
					<stop  offset="1" style="stop-color:#0066B3"/>
				</linearGradient>
				<path id="path9322" class="st2" d="M305.46,549.73c3.18-1.8,7.75-3.18,13-3.18c4.01,0,7.75,0.83,7.75,4.57
					c0,8.72-22.27,3.18-22.27,20.34c0,11.34,11.07,14.39,20.48,14.39c4.57,0,8.99-0.69,12.17-1.8l-0.83-9.68
					c-3.18,1.52-6.92,2.21-10.51,2.21c-3.18,0-8.44-0.28-8.44-4.43c0-7.61,22.27-2.49,22.27-19.51c0-12.17-10.24-15.5-20.75-15.5
					c-4.43,0-9.82,0.69-13.97,2.08L305.46,549.73"/>
			</g>
		</g>
	</g>
	<g id="g9324">
		<g id="g9326">
			<g id="g9332">
				
					<linearGradient id="path9340_1_" gradientUnits="userSpaceOnUse" x1="73.9178" y1="653.2726" x2="76.612" y2="653.2726" gradientTransform="matrix(0 -39.1194 -29.1827 0 19425.7441 3479.6052)">
					<stop  offset="0" style="stop-color:#00C0F3"/>
					<stop  offset="1" style="stop-color:#0066B3"/>
				</linearGradient>
				<path id="path9340" class="st3" d="M344.48,585.29h33.2v-8.85h-20.61v-9.68h19.51v-8.99h-19.51V547.1h21.44v-8.85h-34.03V585.29
					"/>
			</g>
		</g>
	</g>
	<g id="g9342">
		<g id="g9344">
			<g id="g9350">
				
					<linearGradient id="path9358_1_" gradientUnits="userSpaceOnUse" x1="73.9178" y1="643.5569" x2="76.612" y2="643.5569" gradientTransform="matrix(0 -39.1194 -13.0309 0 8777.3252 3479.6052)">
					<stop  offset="0" style="stop-color:#00C0F3"/>
					<stop  offset="1" style="stop-color:#0066B3"/>
				</linearGradient>
				<path id="path9358" class="st4" d="M384.87,585.29h12.59v-47.18h-12.59V585.29z"/>
			</g>
		</g>
	</g>
	<g id="g9360">
		<g id="g9362">
			<g id="g9368">
				
					<linearGradient id="path9376_1_" gradientUnits="userSpaceOnUse" x1="73.9178" y1="659.793" x2="76.612" y2="659.793" gradientTransform="matrix(0 -39.1194 -39.1152 0 25869.9941 3479.6052)">
					<stop  offset="0" style="stop-color:#00C0F3"/>
					<stop  offset="1" style="stop-color:#0066B3"/>
				</linearGradient>
				<path id="path9376" class="st5" d="M71.24,555.54H52.56l9.41,23.38L71.24,555.54z M38.45,538.11h7.06l4.84,11.9h23.1l4.84-11.9
					h7.33L65.7,585.29h-7.06L38.45,538.11"/>
			</g>
		</g>
	</g>
	<g id="g9378">
		<g id="g9380">
			<g id="g9386">
				
					<linearGradient id="path9394_1_" gradientUnits="userSpaceOnUse" x1="75.1769" y1="658.4351" x2="77.8711" y2="658.4351" gradientTransform="matrix(0 -30.758 -19.8976 0 13200.8096 2888.3933)">
					<stop  offset="0" style="stop-color:#00C0F3"/>
					<stop  offset="1" style="stop-color:#0066B3"/>
				</linearGradient>
				<path id="path9394" class="st6" d="M89.22,544.89c2.49-1.66,6.09-2.49,7.89-2.49c2.91,0,6.5,1.25,6.5,4.98
					c0,6.23-14.94,5.81-14.94,15.36c0,7.19,5.4,10.65,12.17,10.65c2.91,0,5.4-0.55,7.89-1.38l-0.55-5.53
					c-1.38,0.83-5.26,1.8-6.64,1.8c-3.18,0-6.09-1.38-6.09-4.15c0-7.06,14.94-4.98,14.94-16.05c0-7.33-5.81-10.79-12.04-10.79
					c-3.18,0-6.5,0.28-9.41,1.94L89.22,544.89"/>
			</g>
		</g>
	</g>
	<g id="g9396">
		<g id="g9398">
			<g id="g9404">
				
					<linearGradient id="path9412_1_" gradientUnits="userSpaceOnUse" x1="75.1769" y1="658.0329" x2="77.8711" y2="658.0329" gradientTransform="matrix(0 -30.758 -25.7171 0 17052.9824 2888.3933)">
					<stop  offset="0" style="stop-color:#00C0F3"/>
					<stop  offset="1" style="stop-color:#0066B3"/>
				</linearGradient>
				<path id="path9412" class="st7" d="M138.61,551.53c0-5.12-3.32-8.99-9.55-8.99c-2.91,0-6.36,1.94-6.36,5.53
					c0,6.09,8.44,6.64,11.9,6.64c1.38,0,2.77-0.14,4.01-0.14V551.53z M120.08,564.67c2.63,2.21,6.36,3.46,9.96,3.46
					c6.36,0,8.44-3.04,8.44-8.99c-2.49,0.14-4.29,0.14-6.78,0.14c-6.5,0-16.05-2.77-16.05-11.34c0-7.47,5.26-10.79,12.59-10.79
					c5.81,0,9.13,3.18,10.65,5.26h0.14v-4.43h5.95c-0.14,0.97-0.28,2.91-0.28,6.78v14.39c0,9.41-4.01,14.25-13.83,14.25
					c-4.43,0-8.16-1.38-11.34-3.18L120.08,564.67"/>
			</g>
		</g>
	</g>
	<g id="g9414">
		<g id="g9416">
			<g id="g9422">
				
					<linearGradient id="path9430_1_" gradientUnits="userSpaceOnUse" x1="73.9117" y1="657.1689" x2="76.6059" y2="657.1689" gradientTransform="matrix(0 -39.1609 -26.5231 0 17599.5547 3482.489)">
					<stop  offset="0" style="stop-color:#00C0F3"/>
					<stop  offset="1" style="stop-color:#0066B3"/>
				</linearGradient>
				<path id="path9430" class="st8" d="M154.25,585.29h6.36v-17.71h0.14c2.35,3.6,6.23,5.81,11.07,5.81
					c8.85,0,12.87-5.53,12.87-14.8v-20.48h-6.36v17.85c0,8.02-1.8,11.9-7.33,12.31c-7.19,0-10.51-5.81-10.51-14.11v-15.91h-6.36
					v47.04"/>
			</g>
		</g>
	</g>
	<g id="g9432">
		<g id="g9434">
			<g id="g9440">
				
					<linearGradient id="path9448_1_" gradientUnits="userSpaceOnUse" x1="73.9047" y1="649.6919" x2="76.5989" y2="649.6919" gradientTransform="matrix(0 -39.1851 -8.945 0 6008.7368 3484.0386)">
					<stop  offset="0" style="stop-color:#00C0F3"/>
					<stop  offset="1" style="stop-color:#0066B3"/>
				</linearGradient>
				<path id="path9448" class="st9" d="M194.09,572.56h6.36v-34.45h-6.36V572.56z M193.68,585.43h7.19v-7.19h-7.19V585.43z"/>
			</g>
		</g>
	</g>
</g>
</svg>
